<svg width="191" height="187" viewBox="0 0 191 187" fill="none" xmlns="http://www.w3.org/2000/svg">
<g filter="url(#filter0_d_1_1430)">
<path d="M141.844 171.12C127.93 166.813 116.824 158.219 109.947 146.591L32.9421 122.768C19.6823 118.662 11.3718 105.776 13.2646 92.2541L21.7733 31.4157C22.7233 24.611 26.273 18.3422 31.8699 14.2246C38.5814 9.28336 47.1905 7.86172 55.0858 10.3079C55.3947 10.4055 55.6976 10.5029 56.0005 10.6062L56.238 10.6912L163.398 52.3393C169.875 54.6918 175.166 59.5769 177.959 65.7838C180.785 72.0849 180.856 79.3355 178.134 85.6849L173.079 97.4865L154.771 138.545C155.541 144.756 157.651 148.454 158.124 149.221C166.932 160.111 155.975 175.611 142.497 171.321L141.844 171.114L141.844 171.12Z" fill="#FAFAFC"/>
<path d="M146.138 157.392C130.52 152.561 123.367 142.347 120.116 134.682L37.2363 109.041C30.7429 107.034 26.6754 100.723 27.5991 94.0996L36.1731 32.8403C37.1423 25.9363 44.3283 21.6451 51.0201 23.9827L158.133 65.6128C164.124 67.7074 167.084 74.3088 164.627 80.0641L159.657 91.6735L139.892 136.005C140.461 149.662 146.144 157.392 146.144 157.392L146.138 157.392Z" fill="#AFEB2B"/>
<path d="M33.814 104.168C37.2961 107.438 42.0541 108.985 46.6405 110.43C71.0098 118.117 96.0127 126.164 120.376 133.852C125.078 143.574 133.348 151.56 143.274 156.117C144.472 156.665 145.81 155.645 145.51 154.382C144.455 149.853 141.727 141.034 141.57 139.433C141.066 134.302 143.25 131.576 145.371 126.906C150.933 114.663 156.585 102.458 162.184 90.2276C164.304 85.5977 166.469 80.7224 166.077 75.663" stroke="#012219" stroke-width="6.37" stroke-miterlimit="10" stroke-linecap="round"/>
<path d="M53.0849 59.3007C51.1361 60.9513 50.054 63.3622 49.1693 65.7346C48.2352 68.2293 47.4529 70.966 48.2182 73.5111C49.412 77.4728 54.3226 79.6067 58.4101 78.615C63.9818 77.2612 68.9237 71.2616 67.5497 65.6112C66.0118 59.2795 59.1547 54.1584 53.0789 59.3065L53.0849 59.3007Z" fill="#50CF45"/>
<path d="M85.6144 70.5193C83.0166 72.9759 81.4511 76.2943 80.2967 79.6471C79.5459 81.822 78.9419 84.1628 79.4787 86.4005C80.3773 90.1301 84.4784 92.5819 88.3761 92.396C99.162 91.8915 109.582 72.3801 96.0441 67.6563C92.4044 66.3873 88.2788 67.9992 85.6205 70.5135L85.6144 70.5193Z" fill="#50CF45"/>
<path d="M130.632 83.5904C128.114 82.7862 125.325 83.4484 122.953 84.6078C118.053 87.0007 114.312 91.5688 112.983 96.7817C112.423 98.9708 112.336 101.476 113.69 103.302C115.26 105.418 118.289 105.954 120.942 105.653C125.04 105.194 128.928 103.111 131.541 99.975C135.002 95.8192 137.98 85.9303 130.632 83.5904Z" fill="#50CF45"/>
</g>
<defs>
<filter id="filter0_d_1_1430" x="0.396948" y="0.53623" width="190.331" height="186.117" filterUnits="userSpaceOnUse" color-interpolation-filters="sRGB">
<feFlood flood-opacity="0" result="BackgroundImageFix"/>
<feColorMatrix in="SourceAlpha" type="matrix" values="0 0 0 0 0 0 0 0 0 0 0 0 0 0 0 0 0 0 127 0" result="hardAlpha"/>
<feOffset dx="-1" dy="3"/>
<feGaussianBlur stdDeviation="5.8"/>
<feComposite in2="hardAlpha" operator="out"/>
<feColorMatrix type="matrix" values="0 0 0 0 0 0 0 0 0 0 0 0 0 0 0 0 0 0 0.5 0"/>
<feBlend mode="normal" in2="BackgroundImageFix" result="effect1_dropShadow_1_1430"/>
<feBlend mode="normal" in="SourceGraphic" in2="effect1_dropShadow_1_1430" result="shape"/>
</filter>
</defs>
</svg>
