<svg width="374" height="144" viewBox="0 0 374 144" fill="none" xmlns="http://www.w3.org/2000/svg">
<path d="M374 134.16V9.58359C374 4.29072 369.714 0 364.426 0L9.8316 0C4.54425 0 0.258026 4.29072 0.258026 9.58359V134.16C0.258026 139.452 4.54425 143.743 9.8316 143.743L364.426 143.743C369.714 143.743 374 139.452 374 134.16Z" fill="#012219"/>
<path d="M257.985 30.9052C257.8 30.8707 257.603 31.0263 257.591 31.2107" stroke="white" stroke-width="4.85" stroke-linecap="round" stroke-linejoin="round"/>
<path d="M218.914 14.9227C218.729 14.8881 218.532 15.0437 218.521 15.2282" stroke="white" stroke-width="4.85" stroke-linecap="round" stroke-linejoin="round"/>
<path d="M136.811 15.0783C136.625 15.0437 136.429 15.1994 136.417 15.3838" stroke="white" stroke-width="4.85" stroke-linecap="round" stroke-linejoin="round"/>
<path d="M280.208 13.793L280.875 13.6604" stroke="white" stroke-width="4.85" stroke-linecap="round" stroke-linejoin="round"/>
<path d="M147.007 123.452L147.54 123.585" stroke="white" stroke-width="4.85" stroke-linecap="round" stroke-linejoin="round"/>
<path d="M240.031 109.988L240.564 110.121" stroke="white" stroke-width="4.85" stroke-linecap="round" stroke-linejoin="round"/>
<path d="M118.776 121.931L119.309 122.063" stroke="white" stroke-width="4.85" stroke-linecap="round" stroke-linejoin="round"/>
<path d="M121.598 92.876H121.731" stroke="white" stroke-width="4.85" stroke-linecap="round" stroke-linejoin="round"/>
<path d="M72.7942 56.882H72.9274" stroke="white" stroke-width="4.85" stroke-linecap="round" stroke-linejoin="round"/>
<path d="M71.4617 50.3C76.6526 50.5824 79.5724 48.4614 81.1598 46.4671C82.4807 47.0781 83.958 47.4239 85.5164 47.4239H106.083C111.778 47.4239 116.395 42.8303 116.395 37.1646V34.4845C116.395 28.8188 111.778 24.2252 106.083 24.2252H85.5164C79.8216 24.2252 75.2042 28.8188 75.2042 34.4845V37.1646C75.2042 38.6228 75.5113 40.0119 76.0675 41.2683C75.6909 46.3807 71.4617 50.3 71.4617 50.3Z" fill="#D8D8D8"/>
<path d="M60.8715 126.899C66.7054 127.216 69.9844 124.83 71.7688 122.588C73.2577 123.279 74.9146 123.665 76.6642 123.665H99.7739C106.176 123.665 111.361 118.501 111.361 112.138V109.124C111.361 102.755 106.17 97.5964 99.7739 97.5964H76.6642C70.2625 97.5964 65.0774 102.761 65.0774 109.124V112.138C65.0774 113.781 65.4193 115.337 66.0449 116.749C65.622 122.495 60.8715 126.899 60.8715 126.899Z" fill="#D8D8D8"/>
<path d="M95.707 90.7031C102.757 91.0835 106.72 88.2074 108.881 85.4985C110.677 86.3285 112.682 86.7953 114.796 86.7953H139.012C146.747 86.7953 153.015 80.5591 153.015 72.8704V69.2277C153.015 61.5333 146.747 55.297 139.012 55.297H114.796C107.062 55.297 100.794 61.5333 100.794 69.2277V72.8704C100.794 74.8531 101.211 76.7378 101.964 78.4438C101.448 85.3833 95.7128 90.7089 95.7128 90.7089L95.707 90.7031Z" fill="#D8D8D8"/>
<path d="M72.7305 89.6023H72.8637" stroke="white" stroke-width="9.92" stroke-linecap="round" stroke-linejoin="round"/>
<path d="M257.099 128.34H257.232" stroke="white" stroke-width="4.85" stroke-linecap="round" stroke-linejoin="round"/>
<path d="M307.646 31.2166H307.779" stroke="white" stroke-width="4.85" stroke-linecap="round" stroke-linejoin="round"/>
<path d="M287.143 46.3691H287.276" stroke="white" stroke-width="4.85" stroke-linecap="round" stroke-linejoin="round"/>
<path d="M307.802 52.9973C300.752 52.6169 296.789 55.493 294.628 58.2019C292.832 57.3719 290.828 56.9051 288.713 56.9051H240.17C232.436 56.9051 226.168 63.1413 226.168 70.83V74.4727C226.168 82.1671 232.436 88.4034 240.17 88.4034H288.713C296.447 88.4034 302.716 82.1671 302.716 74.4727V70.83C302.716 68.8473 302.298 66.9626 301.545 65.2566C302.061 58.3171 307.796 52.9915 307.796 52.9915L307.802 52.9973Z" fill="#62E053"/>
<path d="M300.311 20.0062C295.845 19.7641 293.33 21.5912 291.963 23.303C290.822 22.7727 289.553 22.4788 288.215 22.4788H270.307C265.406 22.4788 261.432 26.4327 261.432 31.303V33.6142C261.432 38.4902 265.406 42.4441 270.307 42.4441H288.215C293.116 42.4441 297.09 38.4902 297.09 33.6142V31.303C297.09 30.0465 296.824 28.8534 296.349 27.7698C296.673 23.3722 300.311 20.0004 300.311 20.0004V20.0062Z" fill="#62E053"/>
<path d="M314.128 100.519C309.662 100.276 307.147 102.104 305.78 103.815C304.639 103.285 303.37 102.991 302.032 102.991H268.795C263.894 102.991 259.92 106.945 259.92 111.815V116.974C259.92 121.85 263.894 125.804 268.795 125.804H302.032C306.933 125.804 310.907 121.85 310.907 116.974V111.815C310.907 110.559 310.641 109.366 310.166 108.282C310.49 103.884 314.128 100.513 314.128 100.513V100.519Z" fill="#62E053"/>
<path d="M242.882 73.9214C242.882 97.1835 219.906 123.719 188.969 123.719C162.893 123.719 137.229 102.209 136.812 73.9214C136.354 43.1435 158.276 18.1869 189.213 18.1869C220.149 18.1869 242.882 48.0138 242.882 73.9214Z" fill="#AFEB2B"/>
<path d="M199.988 30.3521C195.324 45.0782 192.427 60.1386 190.295 75.4469L188.615 75.297C189.009 59.7409 190.243 44.035 193.262 28.7209L199.982 30.3521H199.988Z" fill="#012219"/>
<path d="M190.417 76.2019C184.884 77.3546 179.369 78.8013 173.935 80.3517C168.703 81.8964 163.119 83.5621 158.304 85.8733L155.825 80.0059C158.808 79.003 161.647 78.3921 164.509 77.8157C170.187 76.6976 175.87 75.8964 181.594 75.2163C184.444 74.8878 187.294 74.5881 190.174 74.3864L190.417 76.2019Z" fill="#012219"/>
<path d="M204.084 35.1819C219.552 41.1761 230.513 56.1385 230.513 73.6485C230.513 96.4437 211.939 114.922 189.027 114.922C166.114 114.922 147.54 96.4437 147.54 73.6485C147.54 50.8533 166.114 32.375 189.027 32.375" stroke="#EAEAEA" stroke-width="3.27" stroke-miterlimit="10" stroke-linecap="round"/>
<path d="M161.276 93.7291C161.607 91.7406 161.937 89.7521 162.267 87.7637C164.503 88.853 166.745 89.9423 168.981 91.0317" stroke="#EAEAEA" stroke-width="3.27" stroke-miterlimit="10"/>
<path d="M206.389 38.9859L206.754 39.7294C205.7 38.0925 204.651 36.4556 203.597 34.813C206.523 35.0032 209.442 35.1992 212.368 35.3894C212.235 35.4009 212.102 35.4124 211.974 35.4182" stroke="#EAEAEA" stroke-width="3.27" stroke-miterlimit="10"/>
<path d="M158.872 77.5159C157.319 65.516 163.148 53.2509 174.468 47.1069C189.2 39.1069 207.664 44.5075 215.705 59.1702C223.746 73.8271 218.318 92.1959 203.579 100.196C188.847 108.196 170.383 102.795 162.342 88.1325" stroke="#EAEAEA" stroke-width="3.27" stroke-miterlimit="10" stroke-linecap="round"/>
</svg>
