<svg width="42" height="31" viewBox="0 0 42 31" fill="none" xmlns="http://www.w3.org/2000/svg">
<path d="M4.89905 4.65654L6.8612 7.38064L13.2917 2.42139" stroke="#AEEA30" stroke-width="1.42" stroke-linecap="round" stroke-linejoin="round"/>
<path d="M9.71522 2.36046L4.44418 1.34766L3.07959 8.13171L9.76874 9.42391L10.2504 6.98794" stroke="#06050D" stroke-width="0.62" stroke-miterlimit="10"/>
<path d="M1.3582 17.0984H1.30469L2.66927 10.2969L9.37626 11.4756L7.99383 18.3731L1.36712 17.0984H1.3582Z" stroke="#06050D" stroke-width="0.62" stroke-miterlimit="10"/>
<path d="M14.2461 6.89216L15.245 4.25537L41.9838 13.3619L40.9848 15.9987L14.2461 6.89216Z" fill="#AEEA30"/>
<path d="M38.8621 15.2824L39.9323 12.6631L41.9837 13.3616L40.9847 15.9984L38.8621 15.2824Z" fill="#012219"/>
<path d="M11.285 4.52594C11.169 4.43863 11.1155 4.34259 11.1423 4.27274C11.169 4.20289 11.2582 4.16797 11.392 4.16797L15.129 4.32513L14.2014 6.76983L11.2761 4.52594H11.285Z" fill="white"/>
<path d="M11.4009 4.08936L11.4277 4.23778L15.0309 4.39494L14.1836 6.64756L11.3474 4.47352C11.2493 4.39494 11.2226 4.32509 11.2315 4.2989C11.2315 4.27271 11.2939 4.23778 11.4099 4.23778V4.08936M11.4009 4.08936C11.0442 4.08936 10.9461 4.36002 11.2404 4.58703L14.2461 6.89203L15.245 4.25525L11.4277 4.08936C11.4277 4.08936 11.4099 4.08936 11.392 4.08936H11.4009Z" fill="#012219"/>
<path d="M23.8873 1.4873C23.1382 1.4873 22.2998 1.54841 21.3544 1.68811C15.2004 2.64853 15.2271 7.06646 20.3109 7.11884C23.8427 7.15377 23.6465 5.77426 25.3857 7.15377C27.1249 8.53328 25.796 11.9035 23.4771 12.1741C17.9206 12.829 21.729 7.19743 18.2595 7.72129C14.7901 8.24516 14.3442 15.4134 17.662 18.347C20.6855 21.0187 13.8715 26.6852 13.8715 26.6852L25.7335 30.5967C25.7335 30.5967 26.9376 24.7906 32.3246 16.5048C39.4151 5.60837 33.3592 4.82257 33.3592 4.82257C33.3592 4.82257 32.9757 1.4873 29.6132 1.08567C26.2508 0.684038 24.4938 1.26902 24.4938 1.26902L23.8873 1.46983V1.4873Z" fill="white"/>
<path d="M29.6935 9.2232C29.6935 9.2232 32.0125 0.0119044 21.2563 1.68827C15.1023 2.64869 15.129 7.06662 20.2128 7.11901C23.7447 7.15393 23.5485 5.77442 25.2876 7.15393C27.0268 8.53344 25.8049 11.9036 23.4771 12.1743C17.9207 12.8291 21.6487 7.20632 18.1793 7.73891C14.7099 8.27151 14.255 15.4223 17.5728 18.3559C20.5963 21.0276 15.245 25.7337 15.245 25.7337" stroke="#06050D" stroke-width="0.75" stroke-miterlimit="10" stroke-linecap="round"/>
<path d="M23.4771 1.48742C23.4771 1.48742 31.4327 -0.660429 32.8775 3.58288C32.8775 3.58288 34.1083 6.13235 32.8775 9.59859" stroke="#06050D" stroke-width="0.75" stroke-miterlimit="10"/>
<path d="M33.261 4.83154C33.261 4.83154 39.3169 5.61734 32.2265 16.5137C26.8395 24.7995 26.1527 28.7809 26.1527 28.7809" stroke="#06050D" stroke-width="0.75" stroke-miterlimit="10" stroke-linecap="round"/>
<mask id="mask0_1_1133" style="mask-type:luminance" maskUnits="userSpaceOnUse" x="9" y="2" width="35" height="16">
<path d="M9.2782 2.34326V17.7449H43.7674V2.34326H9.2782ZM19.8916 9.73849L16.7879 8.68203L16.4579 8.27167C16.9306 7.80892 17.4835 7.51206 18.1168 7.41602C18.7411 7.31998 19.2138 7.39856 19.5616 7.65176C20.1146 8.05339 20.2038 8.76934 20.3019 9.52894C20.3019 9.5726 20.3108 9.61625 20.3197 9.65118L19.8738 9.73849H19.8916ZM20.2038 7.45094C18.8214 7.43348 17.8492 7.11916 17.2071 6.68261C17.4568 6.5953 17.7065 6.51672 17.9652 6.48179C18.1881 6.44687 18.3933 6.42941 18.5895 6.42941C18.6698 6.42941 18.75 6.42941 18.8303 6.42941H18.9106C19.4457 6.42941 20.2841 6.58657 20.7746 7.43348C20.5962 7.43348 20.4089 7.44221 20.2127 7.44221L20.2038 7.45094Z" fill="white"/>
</mask>
<g mask="url(#mask0_1_1133)">
<path d="M23.2606 9.89629L25.0178 7.58838L41.9838 13.362L40.9849 15.9987L23.2606 9.89629Z" fill="#AEEA30"/>
<path d="M38.8621 15.2824L39.9323 12.6631L41.9837 13.3616L40.9847 15.9984L38.8621 15.2824Z" fill="#012219"/>
<path d="M11.285 4.52594C11.169 4.43863 11.1155 4.34259 11.1423 4.27274C11.169 4.20289 11.2582 4.16797 11.392 4.16797L15.129 4.32513L14.2014 6.76983L11.2761 4.52594H11.285Z" fill="white"/>
<path d="M11.4009 4.08936L11.4277 4.23778L15.0309 4.39494L14.1836 6.64756L11.3474 4.47352C11.2493 4.39494 11.2226 4.32509 11.2315 4.2989C11.2315 4.27271 11.2939 4.23778 11.4099 4.23778V4.08936M11.4009 4.08936C11.0442 4.08936 10.9461 4.36002 11.2404 4.58703L14.2461 6.89203L15.245 4.25525L11.4277 4.08936C11.4277 4.08936 11.4099 4.08936 11.392 4.08936H11.4009Z" fill="#012219"/>
</g>
<path d="M12.1054 4.18543C12.1054 4.18543 12.1054 4.72676 11.7487 4.90138L11.1511 4.42117C11.1511 4.42117 11.053 4.16797 11.267 4.16797C11.4811 4.16797 12.1054 4.18543 12.1054 4.18543Z" fill="#012219"/>
</svg>
