<svg width="236" height="201" viewBox="0 0 236 201" fill="none" xmlns="http://www.w3.org/2000/svg">
<path d="M116.07 126.57V163.82C116.07 174.08 107.76 182.39 97.5 182.39H74.3L56.46 200.24L38.6 182.39H18.57C8.31 182.39 0 174.08 0 163.82V126.57C0 116.31 8.31 108 18.57 108H97.49C107.75 108 116.06 116.31 116.06 126.57H116.07Z" fill="url(#paint0_linear_803_239)"/>
<path d="M22.2498 149.851C21.9998 149.851 21.7598 149.771 21.5498 149.621L17.6598 146.791C17.5298 146.701 17.3798 146.651 17.2198 146.651C17.0598 146.651 16.9098 146.701 16.7798 146.791L12.8898 149.621C12.6798 149.771 12.4398 149.851 12.1898 149.851C11.8098 149.851 11.4398 149.661 11.2098 149.351C10.9898 149.041 10.9298 148.651 11.0498 148.281L12.5398 143.701C12.6398 143.391 12.5398 143.061 12.2698 142.871L8.37982 140.041C7.94982 139.731 7.77982 139.211 7.94982 138.701C8.10982 138.201 8.55982 137.871 9.08982 137.871H13.8998C14.2198 137.871 14.5098 137.661 14.6098 137.361L16.0998 132.781C16.2598 132.281 16.7098 131.951 17.2398 131.951C17.7698 131.951 18.2098 132.271 18.3798 132.781L19.8698 137.361C19.9698 137.671 20.2498 137.871 20.5798 137.871H25.3898C25.9198 137.871 26.3598 138.191 26.5298 138.701C26.6898 139.201 26.5298 139.731 26.0998 140.041L22.2098 142.871C21.9498 143.061 21.8398 143.391 21.9398 143.701L23.4298 148.281C23.5498 148.651 23.4898 149.041 23.2698 149.351C23.0398 149.671 22.6698 149.851 22.2898 149.851H22.2498Z" fill="url(#paint1_linear_803_239)"/>
<path d="M17.2198 132.19C17.6098 132.19 17.9998 132.41 18.1398 132.86L19.6298 137.44C19.7598 137.84 20.1298 138.11 20.5498 138.11H25.3598C26.2998 138.11 26.6898 139.31 25.9298 139.86L22.0398 142.69C21.6998 142.94 21.5598 143.37 21.6898 143.77L23.1798 148.35C23.3998 149.03 22.8598 149.62 22.2598 149.62C22.0698 149.62 21.8698 149.56 21.6898 149.43L17.7998 146.6C17.6298 146.48 17.4298 146.41 17.2298 146.41C17.0298 146.41 16.8298 146.47 16.6598 146.6L12.7698 149.43C12.5898 149.56 12.3898 149.62 12.1998 149.62C11.5898 149.62 11.0498 149.03 11.2798 148.35L12.7698 143.77C12.8998 143.37 12.7598 142.93 12.4198 142.69L8.52977 139.86C7.76977 139.31 8.15977 138.11 9.09977 138.11H13.9098C14.3298 138.11 14.6998 137.84 14.8298 137.44L16.3198 132.86C16.4698 132.41 16.8498 132.19 17.2398 132.19M17.2198 131.74C16.5898 131.74 16.0598 132.13 15.8698 132.72L14.3798 137.3C14.3098 137.51 14.1098 137.66 13.8898 137.66H9.07977C8.44977 137.66 7.91977 138.05 7.72977 138.64C7.53977 139.24 7.72977 139.86 8.24977 140.23L12.1398 143.06C12.3198 143.19 12.3998 143.42 12.3298 143.63L10.8398 148.21C10.6998 148.65 10.7698 149.11 11.0298 149.48C11.2998 149.85 11.7398 150.08 12.1898 150.08C12.4898 150.08 12.7698 149.98 13.0198 149.8L16.9098 146.97C16.9998 146.91 17.0998 146.87 17.2098 146.87C17.3198 146.87 17.4198 146.9 17.5098 146.97L21.3998 149.8C21.6498 149.98 21.9398 150.08 22.2298 150.08C22.6898 150.08 23.1198 149.86 23.3898 149.48C23.6598 149.11 23.7298 148.65 23.5798 148.21L22.0898 143.63C22.0198 143.42 22.0898 143.19 22.2798 143.06L26.1698 140.23C26.6798 139.86 26.8798 139.24 26.6898 138.64C26.4998 138.04 25.9598 137.66 25.3398 137.66H20.5298C20.3098 137.66 20.1098 137.52 20.0398 137.3L18.5498 132.72C18.3598 132.12 17.8198 131.74 17.1998 131.74H17.2198Z" fill="#FFF648"/>
<path d="M42.4803 149.851C42.2303 149.851 41.9903 149.771 41.7803 149.621L37.8903 146.791C37.7603 146.701 37.6103 146.651 37.4503 146.651C37.2903 146.651 37.1403 146.701 37.0103 146.791L33.1203 149.621C32.9103 149.771 32.6703 149.851 32.4203 149.851C32.0403 149.851 31.6703 149.661 31.4403 149.351C31.2203 149.041 31.1603 148.651 31.2803 148.281L32.7703 143.701C32.8703 143.391 32.7703 143.061 32.5003 142.871L28.6103 140.041C28.1803 139.731 28.0103 139.211 28.1803 138.701C28.3403 138.201 28.7903 137.871 29.3203 137.871H34.1303C34.4503 137.871 34.7403 137.661 34.8403 137.361L36.3303 132.781C36.4903 132.281 36.9403 131.951 37.4703 131.951C38.0003 131.951 38.4403 132.271 38.6103 132.781L40.1003 137.361C40.2003 137.671 40.4803 137.871 40.8103 137.871H45.6203C46.1503 137.871 46.5903 138.191 46.7603 138.701C46.9203 139.201 46.7603 139.731 46.3303 140.041L42.4403 142.871C42.1803 143.061 42.0703 143.391 42.1703 143.701L43.6603 148.281C43.7803 148.651 43.7203 149.041 43.5003 149.351C43.2703 149.671 42.9003 149.851 42.5203 149.851H42.4803Z" fill="url(#paint2_linear_803_239)"/>
<path d="M37.4502 132.19C37.8402 132.19 38.2302 132.41 38.3702 132.86L39.8602 137.44C39.9902 137.84 40.3602 138.11 40.7802 138.11H45.5902C46.5302 138.11 46.9202 139.31 46.1602 139.86L42.2702 142.69C41.9302 142.94 41.7902 143.37 41.9202 143.77L43.4102 148.35C43.6302 149.03 43.0902 149.62 42.4902 149.62C42.3002 149.62 42.1002 149.56 41.9202 149.43L38.0302 146.6C37.8602 146.48 37.6602 146.41 37.4602 146.41C37.2602 146.41 37.0602 146.47 36.8902 146.6L33.0002 149.43C32.8202 149.56 32.6202 149.62 32.4302 149.62C31.8202 149.62 31.2802 149.03 31.5102 148.35L33.0002 143.77C33.1302 143.37 32.9902 142.93 32.6502 142.69L28.7602 139.86C28.0002 139.31 28.3902 138.11 29.3302 138.11H34.1402C34.5602 138.11 34.9302 137.84 35.0602 137.44L36.5502 132.86C36.7002 132.41 37.0802 132.19 37.4702 132.19M37.4502 131.74C36.8202 131.74 36.2902 132.13 36.1002 132.72L34.6102 137.3C34.5402 137.51 34.3402 137.66 34.1202 137.66H29.3102C28.6802 137.66 28.1502 138.05 27.9602 138.64C27.7702 139.24 27.9602 139.86 28.4802 140.23L32.3702 143.06C32.5502 143.19 32.6302 143.42 32.5602 143.63L31.0702 148.21C30.9302 148.65 31.0002 149.11 31.2602 149.48C31.5302 149.85 31.9702 150.08 32.4202 150.08C32.7202 150.08 33.0002 149.98 33.2502 149.8L37.1402 146.97C37.2302 146.91 37.3302 146.87 37.4402 146.87C37.5502 146.87 37.6502 146.9 37.7402 146.97L41.6302 149.8C41.8802 149.98 42.1702 150.08 42.4602 150.08C42.9202 150.08 43.3502 149.86 43.6202 149.48C43.8902 149.11 43.9602 148.65 43.8102 148.21L42.3202 143.63C42.2502 143.42 42.3202 143.19 42.5102 143.06L46.4002 140.23C46.9102 139.86 47.1102 139.24 46.9202 138.64C46.7302 138.04 46.1902 137.66 45.5702 137.66H40.7602C40.5402 137.66 40.3402 137.52 40.2702 137.3L38.7802 132.72C38.5902 132.12 38.0502 131.74 37.4302 131.74H37.4502Z" fill="#FFF648"/>
<path d="M62.72 149.851C62.47 149.851 62.23 149.771 62.02 149.621L58.13 146.791C58 146.701 57.85 146.651 57.69 146.651C57.53 146.651 57.38 146.701 57.25 146.791L53.36 149.621C53.15 149.771 52.91 149.851 52.66 149.851C52.28 149.851 51.91 149.661 51.68 149.351C51.46 149.041 51.4 148.651 51.52 148.281L53.01 143.701C53.11 143.391 53.01 143.061 52.74 142.871L48.85 140.041C48.42 139.731 48.25 139.211 48.42 138.701C48.58 138.201 49.03 137.871 49.56 137.871H54.37C54.69 137.871 54.98 137.661 55.08 137.361L56.57 132.781C56.73 132.281 57.18 131.951 57.71 131.951C58.24 131.951 58.68 132.271 58.85 132.781L60.34 137.361C60.44 137.671 60.72 137.871 61.05 137.871H65.86C66.39 137.871 66.83 138.191 67 138.701C67.16 139.201 67 139.731 66.57 140.041L62.68 142.871C62.42 143.061 62.31 143.391 62.41 143.701L63.9 148.281C64.02 148.651 63.96 149.041 63.74 149.351C63.51 149.671 63.14 149.851 62.76 149.851H62.72Z" fill="url(#paint3_linear_803_239)"/>
<path d="M57.69 132.19C58.08 132.19 58.47 132.41 58.61 132.86L60.1 137.44C60.23 137.84 60.6 138.11 61.02 138.11H65.83C66.77 138.11 67.16 139.31 66.4 139.86L62.51 142.69C62.17 142.94 62.03 143.37 62.16 143.77L63.65 148.35C63.87 149.03 63.33 149.62 62.73 149.62C62.54 149.62 62.34 149.56 62.16 149.43L58.27 146.6C58.1 146.48 57.9 146.41 57.7 146.41C57.5 146.41 57.3 146.47 57.13 146.6L53.24 149.43C53.06 149.56 52.86 149.62 52.67 149.62C52.06 149.62 51.52 149.03 51.75 148.35L53.24 143.77C53.37 143.37 53.23 142.93 52.89 142.69L49 139.86C48.24 139.31 48.63 138.11 49.57 138.11H54.38C54.8 138.11 55.17 137.84 55.3 137.44L56.79 132.86C56.94 132.41 57.32 132.19 57.71 132.19M57.69 131.74C57.06 131.74 56.53 132.13 56.34 132.72L54.85 137.3C54.78 137.51 54.58 137.66 54.36 137.66H49.55C48.92 137.66 48.39 138.05 48.2 138.64C48.01 139.24 48.2 139.86 48.72 140.23L52.61 143.06C52.79 143.19 52.87 143.42 52.8 143.63L51.31 148.21C51.17 148.65 51.24 149.11 51.5 149.48C51.77 149.85 52.21 150.08 52.66 150.08C52.96 150.08 53.24 149.98 53.49 149.8L57.38 146.97C57.47 146.91 57.57 146.87 57.68 146.87C57.79 146.87 57.89 146.9 57.98 146.97L61.87 149.8C62.12 149.98 62.41 150.08 62.7 150.08C63.16 150.08 63.59 149.86 63.86 149.48C64.13 149.11 64.2 148.65 64.05 148.21L62.56 143.63C62.49 143.42 62.56 143.19 62.75 143.06L66.64 140.23C67.15 139.86 67.35 139.24 67.16 138.64C66.97 138.04 66.43 137.66 65.81 137.66H61C60.78 137.66 60.58 137.52 60.51 137.3L59.02 132.72C58.83 132.12 58.29 131.74 57.67 131.74H57.69Z" fill="#FFF648"/>
<path d="M82.9603 149.851C82.7103 149.851 82.4703 149.771 82.2603 149.621L78.3703 146.791C78.2403 146.701 78.0903 146.651 77.9303 146.651C77.7703 146.651 77.6203 146.701 77.4903 146.791L73.6003 149.621C73.3903 149.771 73.1503 149.851 72.9003 149.851C72.5203 149.851 72.1503 149.661 71.9203 149.351C71.7003 149.041 71.6403 148.651 71.7603 148.281L73.2503 143.701C73.3503 143.391 73.2503 143.061 72.9803 142.871L69.0903 140.041C68.6603 139.731 68.4903 139.211 68.6603 138.701C68.8203 138.201 69.2703 137.871 69.8003 137.871H74.6103C74.9303 137.871 75.2203 137.661 75.3203 137.361L76.8103 132.781C76.9703 132.281 77.4203 131.951 77.9503 131.951C78.4803 131.951 78.9203 132.271 79.0903 132.781L80.5803 137.361C80.6803 137.671 80.9603 137.871 81.2903 137.871H86.1003C86.6303 137.871 87.0703 138.191 87.2403 138.701C87.4003 139.201 87.2403 139.731 86.8103 140.041L82.9203 142.871C82.6603 143.061 82.5503 143.391 82.6503 143.701L84.1403 148.281C84.2603 148.651 84.2003 149.041 83.9803 149.351C83.7503 149.671 83.3803 149.851 83.0003 149.851H82.9603Z" fill="url(#paint4_linear_803_239)"/>
<path d="M77.9302 132.19C78.3202 132.19 78.7102 132.41 78.8502 132.86L80.3402 137.44C80.4702 137.84 80.8402 138.11 81.2602 138.11H86.0702C87.0102 138.11 87.4002 139.31 86.6402 139.86L82.7502 142.69C82.4102 142.94 82.2702 143.37 82.4002 143.77L83.8902 148.35C84.1102 149.03 83.5702 149.62 82.9702 149.62C82.7802 149.62 82.5802 149.56 82.4002 149.43L78.5102 146.6C78.3402 146.48 78.1402 146.41 77.9402 146.41C77.7402 146.41 77.5402 146.47 77.3702 146.6L73.4802 149.43C73.3002 149.56 73.1002 149.62 72.9102 149.62C72.3002 149.62 71.7602 149.03 71.9902 148.35L73.4802 143.77C73.6102 143.37 73.4702 142.93 73.1302 142.69L69.2402 139.86C68.4802 139.31 68.8702 138.11 69.8102 138.11H74.6202C75.0402 138.11 75.4102 137.84 75.5402 137.44L77.0302 132.86C77.1802 132.41 77.5602 132.19 77.9502 132.19M77.9302 131.74C77.3002 131.74 76.7702 132.13 76.5802 132.72L75.0902 137.3C75.0202 137.51 74.8202 137.66 74.6002 137.66H69.7902C69.1602 137.66 68.6302 138.05 68.4402 138.64C68.2502 139.24 68.4402 139.86 68.9602 140.23L72.8502 143.06C73.0302 143.19 73.1102 143.42 73.0402 143.63L71.5502 148.21C71.4102 148.65 71.4802 149.11 71.7402 149.48C72.0102 149.85 72.4502 150.08 72.9002 150.08C73.2002 150.08 73.4802 149.98 73.7302 149.8L77.6202 146.97C77.7102 146.91 77.8102 146.87 77.9202 146.87C78.0302 146.87 78.1302 146.9 78.2202 146.97L82.1102 149.8C82.3602 149.98 82.6502 150.08 82.9402 150.08C83.4002 150.08 83.8302 149.86 84.1002 149.48C84.3702 149.11 84.4402 148.65 84.2902 148.21L82.8002 143.63C82.7302 143.42 82.8002 143.19 82.9902 143.06L86.8802 140.23C87.3902 139.86 87.5902 139.24 87.4002 138.64C87.2102 138.04 86.6702 137.66 86.0502 137.66H81.2402C81.0202 137.66 80.8202 137.52 80.7502 137.3L79.2602 132.72C79.0702 132.12 78.5302 131.74 77.9102 131.74H77.9302Z" fill="#FFF648"/>
<path d="M103.19 149.851C102.94 149.851 102.7 149.771 102.49 149.621L98.6003 146.791C98.4703 146.701 98.3203 146.651 98.1603 146.651C98.0003 146.651 97.8503 146.701 97.7203 146.791L93.8303 149.621C93.6203 149.771 93.3803 149.851 93.1303 149.851C92.7503 149.851 92.3803 149.661 92.1503 149.351C91.9303 149.041 91.8703 148.651 91.9903 148.281L93.4803 143.701C93.5803 143.391 93.4803 143.061 93.2103 142.871L89.3203 140.041C88.8903 139.731 88.7203 139.211 88.8903 138.701C89.0503 138.201 89.5003 137.871 90.0303 137.871H94.8403C95.1603 137.871 95.4503 137.661 95.5503 137.361L97.0403 132.781C97.2003 132.281 97.6503 131.951 98.1803 131.951C98.7103 131.951 99.1503 132.271 99.3203 132.781L100.81 137.361C100.91 137.671 101.19 137.871 101.52 137.871H106.33C106.86 137.871 107.3 138.191 107.47 138.701C107.63 139.201 107.47 139.731 107.04 140.041L103.15 142.871C102.89 143.061 102.78 143.391 102.88 143.701L104.37 148.281C104.49 148.651 104.43 149.041 104.21 149.351C103.98 149.671 103.61 149.851 103.23 149.851H103.19Z" fill="url(#paint5_linear_803_239)"/>
<path d="M98.1602 132.19C98.5502 132.19 98.9402 132.41 99.0802 132.86L100.57 137.44C100.7 137.84 101.07 138.11 101.49 138.11H106.3C107.24 138.11 107.63 139.31 106.87 139.86L102.98 142.69C102.64 142.94 102.5 143.37 102.63 143.77L104.12 148.35C104.34 149.03 103.8 149.62 103.2 149.62C103.01 149.62 102.81 149.56 102.63 149.43L98.7402 146.6C98.5702 146.48 98.3702 146.41 98.1702 146.41C97.9702 146.41 97.7702 146.47 97.6002 146.6L93.7102 149.43C93.5302 149.56 93.3302 149.62 93.1402 149.62C92.5302 149.62 91.9902 149.03 92.2202 148.35L93.7102 143.77C93.8402 143.37 93.7002 142.93 93.3602 142.69L89.4702 139.86C88.7102 139.31 89.1002 138.11 90.0402 138.11H94.8502C95.2702 138.11 95.6402 137.84 95.7702 137.44L97.2602 132.86C97.4102 132.41 97.7902 132.19 98.1802 132.19M98.1602 131.74C97.5302 131.74 97.0002 132.13 96.8102 132.72L95.3202 137.3C95.2502 137.51 95.0502 137.66 94.8302 137.66H90.0202C89.3902 137.66 88.8602 138.05 88.6702 138.64C88.4802 139.24 88.6702 139.86 89.1902 140.23L93.0802 143.06C93.2602 143.19 93.3402 143.42 93.2702 143.63L91.7802 148.21C91.6402 148.65 91.7102 149.11 91.9702 149.48C92.2402 149.85 92.6802 150.08 93.1302 150.08C93.4302 150.08 93.7102 149.98 93.9602 149.8L97.8502 146.97C97.9402 146.91 98.0402 146.87 98.1502 146.87C98.2602 146.87 98.3602 146.9 98.4502 146.97L102.34 149.8C102.59 149.98 102.88 150.08 103.17 150.08C103.63 150.08 104.06 149.86 104.33 149.48C104.6 149.11 104.67 148.65 104.52 148.21L103.03 143.63C102.96 143.42 103.03 143.19 103.22 143.06L107.11 140.23C107.62 139.86 107.82 139.24 107.63 138.64C107.44 138.04 106.9 137.66 106.28 137.66H101.47C101.25 137.66 101.05 137.52 100.98 137.3L99.4902 132.72C99.3002 132.12 98.7602 131.74 98.1402 131.74H98.1602Z" fill="#FFF648"/>
<path d="M152.2 19.37V101.68C152.2 112.38 143.53 121.05 132.83 121.05H108.64L90.0402 139.66L71.4202 121.05H50.5302C39.8302 121.05 31.1602 112.38 31.1602 101.68V19.37C31.1402 8.67 39.8202 0 50.5202 0H132.83C143.53 0 152.2 8.67 152.2 19.37Z" fill="url(#paint6_linear_803_239)"/>
<path d="M90.2004 101.83C113.01 101.83 131.5 83.3398 131.5 60.5305C131.5 37.7211 113.01 19.2305 90.2004 19.2305C67.391 19.2305 48.9004 37.7211 48.9004 60.5305C48.9004 83.3398 67.391 101.83 90.2004 101.83Z" fill="url(#paint7_radial_803_239)"/>
<path d="M70.7002 63.5801C70.7002 63.5801 70.5702 86.0701 90.2102 86.0701C109.85 86.0701 107.43 63.5801 107.43 63.5801" stroke="#FF7A2E" stroke-width="6.29" stroke-miterlimit="10"/>
<path d="M69.0402 55.7395C69.0402 55.7395 68.6602 42.0195 77.0502 42.0195C85.4402 42.0195 85.1802 55.7395 85.1802 55.7395" stroke="#FF7A2E" stroke-width="6.29" stroke-miterlimit="10"/>
<path d="M96.0705 55.7395C96.0705 55.7395 95.6905 42.0195 104.08 42.0195C112.47 42.0195 112.21 55.7395 112.21 55.7395" stroke="#FF7A2E" stroke-width="6.29" stroke-miterlimit="10"/>
<path d="M235.85 88.9694V158.479C235.85 167.519 228.53 174.839 219.49 174.839H199.06L183.35 190.559L167.62 174.839H149.98C140.94 174.839 133.62 167.519 133.62 158.479V88.9694C133.62 79.9294 140.94 72.6094 149.98 72.6094H219.49C228.53 72.6094 235.85 79.9294 235.85 88.9694Z" fill="url(#paint8_linear_803_239)"/>
<path d="M212.38 128.389L184.07 156.699L155.63 128.259C148.32 120.949 148.32 109.099 155.63 101.789C162.94 94.4791 174.79 94.4791 182.1 101.789L184.07 103.759L185.91 101.919C193.22 94.6091 205.07 94.6091 212.38 101.919C219.69 109.229 219.69 121.079 212.38 128.389Z" fill="url(#paint9_linear_803_239)"/>
<defs>
<linearGradient id="paint0_linear_803_239" x1="93.65" y1="219.7" x2="27.75" y2="81.85" gradientUnits="userSpaceOnUse">
<stop stop-color="#9CBAF4"/>
<stop offset="1" stop-color="#DFEFF4"/>
</linearGradient>
<linearGradient id="paint1_linear_803_239" x1="9.41982" y1="137.451" x2="21.6698" y2="145.461" gradientUnits="userSpaceOnUse">
<stop stop-color="#FFFF2E"/>
<stop offset="1" stop-color="#FFC72E"/>
</linearGradient>
<linearGradient id="paint2_linear_803_239" x1="29.6603" y1="137.451" x2="41.9003" y2="145.461" gradientUnits="userSpaceOnUse">
<stop stop-color="#FFFF2E"/>
<stop offset="1" stop-color="#FFC72E"/>
</linearGradient>
<linearGradient id="paint3_linear_803_239" x1="49.9" y1="137.451" x2="62.14" y2="145.461" gradientUnits="userSpaceOnUse">
<stop stop-color="#FFFF2E"/>
<stop offset="1" stop-color="#FFC72E"/>
</linearGradient>
<linearGradient id="paint4_linear_803_239" x1="70.1303" y1="137.451" x2="82.3703" y2="145.461" gradientUnits="userSpaceOnUse">
<stop stop-color="#FFFF2E"/>
<stop offset="1" stop-color="#FFC72E"/>
</linearGradient>
<linearGradient id="paint5_linear_803_239" x1="90.3703" y1="137.451" x2="102.61" y2="145.461" gradientUnits="userSpaceOnUse">
<stop stop-color="#FFFF2E"/>
<stop offset="1" stop-color="#FFC72E"/>
</linearGradient>
<linearGradient id="paint6_linear_803_239" x1="136.88" y1="140.39" x2="43.5502" y2="-24.5" gradientUnits="userSpaceOnUse">
<stop stop-color="#9CBAF4"/>
<stop offset="1" stop-color="#DFEFF4"/>
</linearGradient>
<radialGradient id="paint7_radial_803_239" cx="0" cy="0" r="1" gradientUnits="userSpaceOnUse" gradientTransform="translate(78.2604 36.2605) scale(71.11 71.11)">
<stop stop-color="#FFFF2E"/>
<stop offset="1" stop-color="#FFC72E"/>
</radialGradient>
<linearGradient id="paint8_linear_803_239" x1="267.34" y1="202.699" x2="196.68" y2="135.149" gradientUnits="userSpaceOnUse">
<stop stop-color="#9CBAF4"/>
<stop offset="1" stop-color="#DFEFF4"/>
</linearGradient>
<linearGradient id="paint9_linear_803_239" x1="184.01" y1="100.599" x2="184.01" y2="166.389" gradientUnits="userSpaceOnUse">
<stop stop-color="#FF1F26"/>
<stop offset="1" stop-color="#7F0027"/>
</linearGradient>
</defs>
</svg>
